<svg id="Vrstva_1" data-name="Vrstva 1" xmlns="http://www.w3.org/2000/svg" viewBox="0 0 384 510.68"><title>location-pin-solid-ico-v-logo</title><path d="M384,192.66c0,87.4-117,243-168.3,307.2a30.21,30.21,0,0,1-47.4,0C116.1,435.66,0,280.06,0,192.66c0-106,86-192,192-192s192,86,192,192Z" transform="translate(0 -0.66)"/><ellipse cx="192" cy="180.11" rx="142.67" ry="136.76" fill="#ddd"/><path d="M142.54,209.41q0-5.19-5.13-8.16t-16.49-5.32q-37.69-7.92-37.7-32,0-14.13,11.7-23.52T125.44,131q20.12,0,32.18,9.47,9.51,7.47,11.52,18.47a5.17,5.17,0,0,1-4.11,6,6.54,6.54,0,0,1-.89.09H146a5.11,5.11,0,0,1-5-3.8,13.06,13.06,0,0,0-3.47-6.21q-3.9-4-12.21-4-7.12,0-11,3.22a10.15,10.15,0,0,0-3.91,8.2q0,4.68,4.44,7.57t15,5a120.74,120.74,0,0,1,17.73,4.75Q170,188,170,208.22q0,14.43-12.4,23.38t-32,8.94a56,56,0,0,1-23.66-4.74,39.54,39.54,0,0,1-16.16-13,31.45,31.45,0,0,1-5.18-11.6,5.16,5.16,0,0,1,4-6.09,5.33,5.33,0,0,1,1-.1h16.63a5.27,5.27,0,0,1,5,4,13.77,13.77,0,0,0,5,7.55q5.18,4,13.86,4,8.12,0,12.26-3.08A9.56,9.56,0,0,0,142.54,209.41Z" transform="translate(0 -0.66)" fill="#1878a5"/><path d="M186.19,240.8H173.56a4.15,4.15,0,0,1-3.75-5.52L219.47,80.64a4,4,0,0,1,3.75-2.84h12.63a4.15,4.15,0,0,1,3.75,5.52L189.92,238A4,4,0,0,1,186.19,240.8Z" transform="translate(0 -0.66)" fill="#1878a5"/><path d="M246.52,192.66l47.13,16.62a2.57,2.57,0,0,1,1.72,2.43v21.63a2.58,2.58,0,0,1-3.58,2.37l-78.93-33.46a2.59,2.59,0,0,1-1.57-2.37V180.24a2.57,2.57,0,0,1,1.57-2.37l78.93-33.46a2.58,2.58,0,0,1,3.38,1.38,2.67,2.67,0,0,1,.2,1v21.63a2.58,2.58,0,0,1-1.7,2.42l-47.16,17a2.57,2.57,0,0,0,0,4.81Z" transform="translate(0 -0.66)" fill="#1878a5"/><path d="M140.16,204.41q0-5.19-5.13-8.16t-16.45-5.32q-37.67-7.91-37.66-32,0-14.1,11.63-23.49T123.07,126q20.12,0,32.18,9.47,9.51,7.47,11.52,18.47a5.17,5.17,0,0,1-4.11,6,6.54,6.54,0,0,1-.89.09H143.66a5.11,5.11,0,0,1-5-3.8,13.06,13.06,0,0,0-3.47-6.21q-3.9-4-12.21-4-7.12,0-11,3.22a10.15,10.15,0,0,0-3.91,8.2q0,4.68,4.45,7.57t15,5a120.62,120.62,0,0,1,17.72,4.75q22.37,8.19,22.36,28.42,0,14.43-12.4,23.38t-32,8.94a55.9,55.9,0,0,1-23.61-4.74,39.64,39.64,0,0,1-16.17-13,31.46,31.46,0,0,1-5.22-11.6,5.16,5.16,0,0,1,4-6.09,5.33,5.33,0,0,1,1-.1H99.92a5.26,5.26,0,0,1,5,4,13.77,13.77,0,0,0,5,7.55q5.17,4,13.87,4,8.1,0,12.25-3.08A9.57,9.57,0,0,0,140.16,204.41Z" transform="translate(0 -0.66)" fill="#fff" stroke="#000" stroke-miterlimit="10" stroke-width="3"/><path d="M183.81,235.8H171.18a4.15,4.15,0,0,1-3.75-5.52L217.09,75.64a4,4,0,0,1,3.75-2.84h12.63a4.15,4.15,0,0,1,3.75,5.52L187.57,233A4,4,0,0,1,183.81,235.8Z" transform="translate(0 -0.66)" fill="#fff" stroke="#1878a5" stroke-miterlimit="10" stroke-width="2"/><path d="M244.15,187.66l47.12,16.62a2.57,2.57,0,0,1,1.72,2.43v21.63a2.58,2.58,0,0,1-3.58,2.37l-78.93-33.46a2.59,2.59,0,0,1-1.57-2.37V175.24a2.57,2.57,0,0,1,1.57-2.37l78.93-33.46a2.58,2.58,0,0,1,3.38,1.38,2.67,2.67,0,0,1,.2,1v21.63a2.58,2.58,0,0,1-1.7,2.42l-47.16,17a2.57,2.57,0,0,0,0,4.81Z" transform="translate(0 -0.66)" fill="#fff" stroke="#1878a5" stroke-miterlimit="10" stroke-width="2"/></svg>