<?xml version="1.0" standalone="no"?>
<!DOCTYPE svg PUBLIC "-//W3C//DTD SVG 20010904//EN"
 "http://www.w3.org/TR/2001/REC-SVG-20010904/DTD/svg10.dtd">
<svg version="1.0" xmlns="http://www.w3.org/2000/svg"
 width="952.000000pt" height="952.000000pt" viewBox="0 0 952.000000 952.000000"
 preserveAspectRatio="xMidYMid meet">
<metadata>
Created by potrace 1.14, written by Peter Selinger 2001-2017
</metadata>
<g transform="translate(0.000000,952.000000) scale(0.100000,-0.100000)"
fill="#000000" stroke="none">
<path d="M4705 9504 c-539 -39 -878 -101 -1290 -239 -328 -109 -596 -233 -902
-418 -261 -158 -419 -275 -573 -428 -110 -108 -177 -189 -263 -319 -178 -267
-282 -570 -294 -850 -26 -644 437 -1233 1297 -1649 91 -43 233 -104 315 -135
1601 -591 2876 -1063 3680 -1362 l720 -268 95 0 c112 -1 175 22 232 82 47 49
342 431 369 477 37 62 16 136 -55 190 -20 15 -212 92 -468 186 -238 88 -1124
416 -1968 729 -844 312 -1647 609 -1785 660 -304 112 -370 139 -555 228 -160
77 -248 137 -358 244 -175 171 -252 337 -252 543 0 120 23 226 77 352 135 311
411 561 883 796 324 162 642 255 1004 293 220 23 673 15 841 -15 410 -73 697
-209 934 -443 140 -139 221 -274 277 -463 48 -165 47 -196 -56 -1065 -108
-919 -108 -925 -86 -968 22 -43 87 -89 150 -107 51 -14 661 -55 824 -55 130 0
236 50 268 126 8 18 57 408 111 866 86 740 97 851 97 998 -1 241 -40 407 -149
636 -194 408 -577 768 -1080 1014 -385 188 -757 292 -1237 345 -134 15 -680
28 -803 19z"/>
<path d="M1921 5661 c-29 -10 -65 -27 -80 -38 -29 -22 -357 -434 -397 -501
-21 -34 -25 -51 -21 -83 11 -81 64 -126 213 -181 1230 -454 2118 -783 2884
-1066 520 -192 1064 -394 1210 -447 395 -146 636 -256 765 -352 194 -144 323
-318 370 -498 21 -84 19 -241 -5 -341 -90 -375 -382 -683 -900 -948 -353 -181
-692 -280 -1075 -316 -166 -15 -549 -12 -699 5 -440 51 -794 206 -1047 457
-137 137 -220 276 -275 463 -48 165 -47 196 56 1065 108 919 108 925 86 968
-22 43 -87 89 -150 107 -50 14 -669 55 -829 55 -124 0 -232 -52 -263 -126 -8
-18 -57 -405 -111 -861 -86 -737 -97 -847 -97 -998 0 -138 5 -190 23 -275 42
-200 123 -392 235 -565 204 -312 552 -609 946 -806 539 -270 1161 -393 1900
-375 673 15 1242 132 1793 367 302 130 665 336 895 509 352 266 603 606 726
981 162 496 60 961 -304 1385 -244 285 -701 589 -1145 763 -71 28 -1111 414
-2310 857 -2111 781 -2183 807 -2260 811 -61 3 -93 -1 -134 -16z"/>
</g>
</svg>
