<?xml version="1.0" standalone="no"?>
<!DOCTYPE svg PUBLIC "-//W3C//DTD SVG 20010904//EN"
 "http://www.w3.org/TR/2001/REC-SVG-20010904/DTD/svg10.dtd">
<svg version="1.0" xmlns="http://www.w3.org/2000/svg"
 width="317.000000pt" height="317.000000pt" viewBox="0 0 317.000000 317.000000"
 preserveAspectRatio="xMidYMid meet">
<metadata>
Created by potrace 1.14, written by Peter Selinger 2001-2017
</metadata>
<g transform="translate(0.000000,317.000000) scale(0.100000,-0.100000)"
fill="#000000" stroke="none">
<path d="M1925 2433 c-52 -134 -505 -1498 -501 -1508 7 -20 179 -22 193 -2 18
23 515 1506 508 1517 -3 6 -46 10 -100 10 -79 0 -94 -3 -100 -17z"/>
<path d="M860 1993 c-109 -18 -217 -81 -268 -155 -43 -63 -55 -111 -50 -189
11 -153 109 -234 362 -299 140 -36 176 -50 205 -81 42 -45 17 -121 -48 -149
-19 -7 -61 -11 -110 -9 -95 5 -124 21 -162 95 l-25 49 -113 3 c-75 2 -118 -1
-127 -9 -53 -44 56 -227 170 -286 152 -79 377 -82 530 -7 141 69 210 203 176
343 -32 133 -126 195 -391 261 -129 31 -159 45 -185 86 -14 21 -15 31 -5 65
18 61 57 81 152 77 88 -3 110 -17 140 -84 22 -49 34 -54 151 -54 110 0 138 10
138 48 0 127 -130 252 -299 288 -62 13 -184 17 -241 7z"/>
<path d="M2230 1666 l-405 -172 -3 -116 -3 -115 405 -171 c223 -95 412 -172
421 -172 13 0 15 20 15 130 0 72 -1 130 -3 130 -13 0 -513 182 -520 189 -13
13 8 22 270 116 130 47 241 89 246 94 11 11 4 254 -8 257 -5 1 -192 -75 -415
-170z"/>
</g>
</svg>
