<svg id="Vrstva_1" data-name="Vrstva 1" xmlns="http://www.w3.org/2000/svg" xmlns:xlink="http://www.w3.org/1999/xlink" viewBox="0 0 384 510.68"><defs><linearGradient id="Nepojmenovaný_přechod_10" x1="621.39" y1="216.45" x2="700.72" y2="216.45" gradientTransform="matrix(1, 0, 0, -1, -477.68, 345.93)" gradientUnits="userSpaceOnUse"><stop offset="0" stop-color="#04374f"/><stop offset="0.11" stop-color="#043e58"/><stop offset="0.3" stop-color="#045272"/><stop offset="0.53" stop-color="#03739b"/><stop offset="0.55" stop-color="#03769f"/><stop offset="0.99" stop-color="#04374f"/></linearGradient><linearGradient id="Nepojmenovaný_přechod_10-2" x1="702.49" y1="211.15" x2="702.49" y2="211.15" xlink:href="#Nepojmenovaný_přechod_10"/><linearGradient id="Nepojmenovaný_přechod_8" x1="713.22" y1="168.3" x2="707.14" y2="208.91" gradientTransform="matrix(1, 0, 0, -1, -477.68, 345.93)" gradientUnits="userSpaceOnUse"><stop offset="0" stop-color="#04374f"/><stop offset="0.2" stop-color="#043e58"/><stop offset="0.54" stop-color="#045272"/><stop offset="0.96" stop-color="#03739b"/><stop offset="1" stop-color="#03769f"/></linearGradient><linearGradient id="Nepojmenovaný_přechod_9" x1="615.93" y1="185.91" x2="722.77" y2="185.91" gradientTransform="matrix(1, 0, 0, -1, -477.68, 345.93)" gradientUnits="userSpaceOnUse"><stop offset="0" stop-color="#03769f"/><stop offset="1" stop-color="#04374f"/></linearGradient><linearGradient id="Nepojmenovaný_přechod_10-3" x1="694.72" y1="237.69" x2="694.72" y2="237.69" xlink:href="#Nepojmenovaný_přechod_10"/><linearGradient id="Nepojmenovaný_přechod_10-4" x1="611.94" y1="33.94" x2="691.28" y2="33.94" gradientTransform="matrix(-1, 0, 0, 1, 852.23, 196.22)" xlink:href="#Nepojmenovaný_přechod_10"/><linearGradient id="Nepojmenovaný_přechod_10-5" x1="693.04" y1="28.64" x2="693.04" y2="28.64" gradientTransform="matrix(-1, 0, 0, 1, 852.23, 196.22)" xlink:href="#Nepojmenovaný_přechod_10"/><linearGradient id="Nepojmenovaný_přechod_8-2" x1="703.78" y1="-14.21" x2="697.7" y2="26.4" gradientTransform="matrix(-1, 0, 0, 1, 852.23, 196.22)" xlink:href="#Nepojmenovaný_přechod_8"/><linearGradient id="Nepojmenovaný_přechod_9-2" x1="606.48" y1="3.4" x2="713.33" y2="3.4" gradientTransform="matrix(-1, 0, 0, 1, 852.23, 196.22)" xlink:href="#Nepojmenovaný_přechod_9"/><linearGradient id="Nepojmenovaný_přechod_10-6" x1="685.27" y1="55.18" x2="685.27" y2="55.18" gradientTransform="matrix(-1, 0, 0, 1, 852.23, 196.22)" xlink:href="#Nepojmenovaný_přechod_10"/></defs><title>location-pin-solid-ico-v-logo-v2</title><path d="M0,192c0,87.4,117,243,168.3,307.2a30.21,30.21,0,0,0,47.4,0C267.9,435,384,279.4,384,192,384,86,298,0,192,0S0,86,0,192Z" transform="translate(0 0)" fill="#383838"/><circle cx="192" cy="188.18" r="135.5" fill="#eaeaea"/><g id="Vrstva_5" data-name="Vrstva 5"><path d="M168.86,154.66c-.89-.48-1.74-1-2.54-1.52-1.63-1.09-5.06-3.38-6.84-6.91-2.38-4.75-.48-9,.32-10.86,2.54-5.7,8-9,10.71-10.58a46.47,46.47,0,0,1,22.56-6.53c3.68-.11,11.34-.36,18.47,3.07a22.54,22.54,0,0,1,8.51,7,18.32,18.32,0,0,1,2.72,7.43,49.74,49.74,0,0,0-5.37-28.18c-10.87-3.7-21.12-3.38-25.37-3.25a73,73,0,0,0-34.87,9.91c-2.72,1.63-8.86,5-13.45,11.27A45.12,45.12,0,0,0,168.86,154.66Z" transform="translate(0 0)" fill="url(#Nepojmenovaný_přechod_10)"/><path d="M224.81,134.78" transform="translate(0 0)" fill="url(#Nepojmenovaný_přechod_10-2)"/><path d="M223,130.66a49.21,49.21,0,0,1-.27,5.15,13.94,13.94,0,0,1,0,1.71l-3.08,26.59a2.41,2.41,0,0,0,.89,2.08,5.22,5.22,0,0,0,3.12,1.17l11.49.66a5.66,5.66,0,0,0,3.31-.77,2.77,2.77,0,0,0,1.39-2L243,138.63v-.12a24.08,24.08,0,0,0-4.54-16c-4.69-6.75-11.56-10.72-15.24-12.48a51.55,51.55,0,0,0-5.82-2.39A49.39,49.39,0,0,1,223,130.66Z" transform="translate(0 0)" fill="url(#Nepojmenovaný_přechod_8)"/><path d="M242.77,181.89l-33.85-12.52h0l-27.11-10.06-.34-.1-6.83-2.54-.32-.11a35.72,35.72,0,0,1-4.86-2.05,44.71,44.71,0,0,1-25.72-29,29.25,29.25,0,0,0-3.13,5.35c-1.15,2.59-4.64,10.46-.09,19.49,3.36,6.7,9.58,10.85,11.91,12.41A55.41,55.41,0,0,0,165.21,169l68,25.15c2.13.79,4.79.25,5.93-1.22l5.44-7C245.71,184.5,244.91,182.67,242.77,181.89Z" transform="translate(0 0)" fill="url(#Nepojmenovaný_přechod_9)"/><path d="M217,108.24" transform="translate(0 0)" fill="url(#Nepojmenovaný_přechod_10-3)"/><path d="M215.13,205a29.38,29.38,0,0,1,2.54,1.52c1.64,1.1,5.06,3.38,6.84,6.92,2.38,4.74.48,9-.32,10.85-2.54,5.7-8.05,9-10.71,10.58a46.47,46.47,0,0,1-22.56,6.53c-3.68.12-11.34.36-18.47-3.07a22.63,22.63,0,0,1-8.52-7,18.38,18.38,0,0,1-2.71-7.43A49.67,49.67,0,0,0,166.6,252c10.87,3.71,21.12,3.38,25.37,3.25a72.91,72.91,0,0,0,34.86-9.91c2.72-1.62,8.87-5,13.46-11.27A45.11,45.11,0,0,0,215.13,205Z" transform="translate(0 0)" fill="url(#Nepojmenovaný_přechod_10-4)"/><path d="M159.19,224.86" transform="translate(0 0)" fill="url(#Nepojmenovaný_přechod_10-5)"/><path d="M161,229a49.26,49.26,0,0,1,.27-5.16,13.94,13.94,0,0,1,0-1.71l3.08-26.59a2.4,2.4,0,0,0-.89-2.07,5.1,5.1,0,0,0-3.12-1.17l-11.49-.67a5.73,5.73,0,0,0-3.31.78,2.77,2.77,0,0,0-1.39,2L141,221v.13a24.06,24.06,0,0,0,4.54,16c4.69,6.75,11.56,10.72,15.24,12.49a51.72,51.72,0,0,0,5.84,2.37A49.44,49.44,0,0,1,161,229Z" transform="translate(0 0)" fill="url(#Nepojmenovaný_přechod_8-2)"/><path d="M141.22,177.77l33.85,12.51h0l27.11,10.05.34.1,6.83,2.54.32.11a35.21,35.21,0,0,1,3.32,1.31l2.95,1.37a44.7,44.7,0,0,1,24.32,28.36,28.92,28.92,0,0,0,3.13-5.35c1.15-2.59,4.64-10.45.09-19.49-3.36-6.7-9.58-10.85-11.91-12.41a55.41,55.41,0,0,0-12.78-6.23l-68-25.15c-2.14-.79-4.8-.24-5.94,1.22l-5.44,7C138.28,175.14,139.09,177,141.22,177.77Z" transform="translate(0 0)" fill="url(#Nepojmenovaný_přechod_9-2)"/><path d="M167,251.4" transform="translate(0 0)" fill="url(#Nepojmenovaný_přechod_10-6)"/></g></svg>