<svg id="Vrstva_1" data-name="Vrstva 1" xmlns="http://www.w3.org/2000/svg" viewBox="0 0 384 510.68"><defs><style>.cls-1{fill:#333;}.cls-2,.cls-3{fill:#fff;stroke-miterlimit:10;}.cls-2{stroke:#000;stroke-width:3px;}.cls-3{stroke:#1878a5;stroke-width:2px;}</style></defs><title>location-pin-solid-ico-v-logo</title><path class="cls-1" d="M0,192c0,87.4,117,243,168.3,307.2a30.21,30.21,0,0,0,47.4,0C267.9,435,384,279.4,384,192,384,86,298,0,192,0S0,86,0,192Z" transform="translate(0 0)"/><path class="cls-2" d="M135.86,226.48q0-6.36-6.12-10t-19.63-6.53q-44.94-9.7-44.93-39.26,0-17.3,13.88-28.82t36.41-11.58q24,0,38.39,11.62,11.34,9.16,13.74,22.66a6.33,6.33,0,0,1-4.9,7.36,7.62,7.62,0,0,1-1.06.11H140a6.13,6.13,0,0,1-6-4.66,16.15,16.15,0,0,0-4.14-7.62q-4.65-4.91-14.57-4.91-8.49,0-13.12,3.95a12.6,12.6,0,0,0-4.67,10.06q0,5.75,5.31,9.29t17.9,6.14a140.24,140.24,0,0,1,21.14,5.82q26.69,10.05,26.67,34.88,0,17.7-14.79,28.68t-38.18,11a65.1,65.1,0,0,1-28.17-5.81,47.69,47.69,0,0,1-19.29-15.95,39.25,39.25,0,0,1-6.22-14.24,6.32,6.32,0,0,1,4.77-7.47A5.93,5.93,0,0,1,67.9,221H87.85a6.31,6.31,0,0,1,6,4.9,16.94,16.94,0,0,0,6,9.27q6.16,4.9,16.55,4.91,9.66,0,14.61-3.78A11.87,11.87,0,0,0,135.86,226.48Z" transform="translate(0 0)"/><path class="cls-3" d="M187.93,265H172.87a5,5,0,0,1-4.75-5.29,5.23,5.23,0,0,1,.27-1.48L227.64,68.48A4.79,4.79,0,0,1,232.11,65h15.07a5,5,0,0,1,4.75,5.29,5.23,5.23,0,0,1-.27,1.48L192.42,261.56A4.79,4.79,0,0,1,187.93,265Z" transform="translate(0 0)"/><path class="cls-3" d="M259.92,205.93l56.22,20.4a3.15,3.15,0,0,1,2.05,3v26.54A3.12,3.12,0,0,1,315.1,259a2.88,2.88,0,0,1-1.18-.25L219.75,217.7a3.17,3.17,0,0,1-1.87-2.91v-24.1a3.15,3.15,0,0,1,1.87-2.9l94.17-41.06a3,3,0,0,1,4,1.69h0a3.25,3.25,0,0,1,.24,1.23v26.54a3.15,3.15,0,0,1-2,3L259.9,200a3.17,3.17,0,0,0-1.79,4.06,3.1,3.1,0,0,0,1.79,1.84Z" transform="translate(0 0)"/></svg>