<?xml version="1.0" encoding="utf-8"?>
<!-- Generator: Adobe Illustrator 23.0.2, SVG Export Plug-In . SVG Version: 6.00 Build 0)  -->
<svg version="1.1" id="Vrstva_1" xmlns="http://www.w3.org/2000/svg" xmlns:xlink="http://www.w3.org/1999/xlink" x="0px" y="0px"
	 viewBox="0 0 384 510.7" style="enable-background:new 0 0 384 510.7;" xml:space="preserve">
<style type="text/css">
	.st0{fill:#383838;}
	.st1{fill:#EAEAEA;}
	.st2{fill:url(#SVGID_1_);}
	.st3{fill:url(#SVGID_2_);}
	.st4{fill:url(#SVGID_3_);}
	.st5{fill:url(#SVGID_4_);}
	.st6{fill:url(#SVGID_5_);}
	.st7{fill:url(#SVGID_6_);}
	.st8{fill:url(#SVGID_7_);}
	.st9{fill:url(#SVGID_8_);}
	.st10{fill:url(#SVGID_9_);}
	.st11{fill:url(#SVGID_10_);}
</style>
<title>location-pin-solid-ico-v-logo</title>
<path class="st0" d="M0,192c0,87.4,117,243,168.3,307.2c10.3,13.1,29.3,15.3,42.4,5c1.8-1.5,3.5-3.1,5-5
	C267.9,435,384,279.4,384,192C384,86,298,0,192,0S0,86,0,192z"/>
<title>logo</title>
<circle class="st1" cx="192" cy="188.2" r="135.5"/>
<g id="Vrstva_5">
	
		<linearGradient id="SVGID_1_" gradientUnits="userSpaceOnUse" x1="621.3857" y1="216.4488" x2="700.7224" y2="216.4488" gradientTransform="matrix(1 0 0 -1 -477.68 345.9276)">
		<stop  offset="0" style="stop-color:#04374F"/>
		<stop  offset="0.11" style="stop-color:#043E58"/>
		<stop  offset="0.3" style="stop-color:#045272"/>
		<stop  offset="0.53" style="stop-color:#03739B"/>
		<stop  offset="0.55" style="stop-color:#03769F"/>
		<stop  offset="0.99" style="stop-color:#04374F"/>
	</linearGradient>
	<path class="st2" d="M168.9,154.7c-0.9-0.5-1.7-1-2.5-1.5c-1.6-1.1-5.1-3.4-6.8-6.9c-2.4-4.7-0.5-9,0.3-10.9
		c2.5-5.7,8.1-9,10.7-10.6c6.8-4.1,14.6-6.3,22.6-6.5c3.7-0.1,11.3-0.4,18.5,3.1c1.6,0.8,5.7,3,8.5,7c2.5,3.6,2.7,8.1,2.7,7.4
		c0.2-1.7,0.3-3.5,0.3-5.2c0-8-1.9-15.9-5.6-23c-10.9-3.7-21.1-3.4-25.4-3.3c-8.8,0.3-22,2.2-34.9,9.9c-2.7,1.6-8.9,5-13.5,11.3
		C147.4,138.5,156.6,149.4,168.9,154.7z"/>
	
		<linearGradient id="SVGID_2_" gradientUnits="userSpaceOnUse" x1="702.4875" y1="211.1488" x2="702.4875" y2="211.1488" gradientTransform="matrix(1 0 0 -1 -477.68 345.9276)">
		<stop  offset="0" style="stop-color:#04374F"/>
		<stop  offset="0.11" style="stop-color:#043E58"/>
		<stop  offset="0.3" style="stop-color:#045272"/>
		<stop  offset="0.53" style="stop-color:#03739B"/>
		<stop  offset="0.55" style="stop-color:#03769F"/>
		<stop  offset="0.99" style="stop-color:#04374F"/>
	</linearGradient>
	<path class="st3" d="M224.8,134.8"/>
	
		<linearGradient id="SVGID_3_" gradientUnits="userSpaceOnUse" x1="713.2179" y1="168.2972" x2="707.1381" y2="208.9068" gradientTransform="matrix(1 0 0 -1 -477.68 345.9276)">
		<stop  offset="0" style="stop-color:#04374F"/>
		<stop  offset="0.2" style="stop-color:#043E58"/>
		<stop  offset="0.54" style="stop-color:#045272"/>
		<stop  offset="0.96" style="stop-color:#03739B"/>
		<stop  offset="1" style="stop-color:#03769F"/>
	</linearGradient>
	<path class="st4" d="M223,130.7c0,1.7-0.1,3.4-0.3,5.2c0,0.6,0,1.1,0,1.7l-3.1,26.6c-0.1,0.8,0.3,1.6,0.9,2.1
		c0.9,0.7,2,1.1,3.1,1.2l11.5,0.7c1.2,0.1,2.3-0.2,3.3-0.8c0.7-0.4,1.3-1.1,1.4-2l3.1-26.7v-0.1c0.3-3.8-0.2-9.7-4.5-16
		c-4.7-6.8-11.6-10.7-15.2-12.5c-1.9-0.9-3.8-1.7-5.8-2.4C221.1,114.7,223.1,122.6,223,130.7z"/>
	
		<linearGradient id="SVGID_4_" gradientUnits="userSpaceOnUse" x1="615.9285" y1="185.9097" x2="722.7736" y2="185.9097" gradientTransform="matrix(1 0 0 -1 -477.68 345.9276)">
		<stop  offset="0" style="stop-color:#03769F"/>
		<stop  offset="1" style="stop-color:#04374F"/>
	</linearGradient>
	<path class="st5" d="M242.8,181.9l-33.9-12.5l0,0l-27.1-10.1c-0.1,0-0.2-0.1-0.3-0.1l-6.8-2.5l-0.3-0.1c-1.7-0.6-3.3-1.2-4.9-2.1
		c-12.5-5.3-22-15.9-25.7-29c-1.2,1.7-2.3,3.5-3.1,5.3c-1.1,2.6-4.6,10.5-0.1,19.5c3.4,6.7,9.6,10.8,11.9,12.4
		c4,2.6,8.3,4.7,12.8,6.2l68,25.1c2.1,0.8,4.8,0.2,5.9-1.2l5.4-7C245.7,184.5,244.9,182.7,242.8,181.9z"/>
	
		<linearGradient id="SVGID_5_" gradientUnits="userSpaceOnUse" x1="694.7186" y1="237.6907" x2="694.7186" y2="237.6907" gradientTransform="matrix(1 0 0 -1 -477.68 345.9276)">
		<stop  offset="0" style="stop-color:#04374F"/>
		<stop  offset="0.11" style="stop-color:#043E58"/>
		<stop  offset="0.3" style="stop-color:#045272"/>
		<stop  offset="0.53" style="stop-color:#03739B"/>
		<stop  offset="0.55" style="stop-color:#03769F"/>
		<stop  offset="0.99" style="stop-color:#04374F"/>
	</linearGradient>
	<path class="st6" d="M217,108.2"/>
	
		<linearGradient id="SVGID_6_" gradientUnits="userSpaceOnUse" x1="611.9387" y1="33.9398" x2="691.2849" y2="33.9398" gradientTransform="matrix(-1 0 0 1 852.23 196.2224)">
		<stop  offset="0" style="stop-color:#04374F"/>
		<stop  offset="0.11" style="stop-color:#043E58"/>
		<stop  offset="0.3" style="stop-color:#045272"/>
		<stop  offset="0.53" style="stop-color:#03739B"/>
		<stop  offset="0.55" style="stop-color:#03769F"/>
		<stop  offset="0.99" style="stop-color:#04374F"/>
	</linearGradient>
	<path class="st7" d="M215.1,205c0.9,0.5,1.7,1,2.5,1.5c1.6,1.1,5.1,3.4,6.8,6.9c2.4,4.7,0.5,9-0.3,10.9c-2.5,5.7-8.1,9-10.7,10.6
		c-6.8,4.1-14.6,6.3-22.6,6.5c-3.7,0.1-11.3,0.4-18.5-3.1c-1.6-0.8-5.7-3-8.5-7c-2.5-3.6-2.7-8.1-2.7-7.4c-0.2,1.7-0.3,3.4-0.3,5.2
		c0,8,1.9,15.9,5.7,23c10.9,3.7,21.1,3.4,25.4,3.3c8.8-0.3,22-2.2,34.9-9.9c2.7-1.6,8.9-5,13.5-11.3
		C236.6,221.1,227.3,210.2,215.1,205z"/>
	
		<linearGradient id="SVGID_7_" gradientUnits="userSpaceOnUse" x1="693.0437" y1="28.6398" x2="693.0437" y2="28.6398" gradientTransform="matrix(-1 0 0 1 852.23 196.2224)">
		<stop  offset="0" style="stop-color:#04374F"/>
		<stop  offset="0.11" style="stop-color:#043E58"/>
		<stop  offset="0.3" style="stop-color:#045272"/>
		<stop  offset="0.53" style="stop-color:#03739B"/>
		<stop  offset="0.55" style="stop-color:#03769F"/>
		<stop  offset="0.99" style="stop-color:#04374F"/>
	</linearGradient>
	<path class="st8" d="M159.2,224.9"/>
	
		<linearGradient id="SVGID_8_" gradientUnits="userSpaceOnUse" x1="703.7806" y1="-14.2109" x2="697.7007" y2="26.4019" gradientTransform="matrix(-1 0 0 1 852.23 196.2224)">
		<stop  offset="0" style="stop-color:#04374F"/>
		<stop  offset="0.2" style="stop-color:#043E58"/>
		<stop  offset="0.54" style="stop-color:#045272"/>
		<stop  offset="0.96" style="stop-color:#03739B"/>
		<stop  offset="1" style="stop-color:#03769F"/>
	</linearGradient>
	<path class="st9" d="M161,229c0-1.7,0.1-3.4,0.3-5.2c0-0.6,0-1.1,0-1.7l3.1-26.6c0.1-0.8-0.3-1.6-0.9-2.1c-0.9-0.7-2-1.1-3.1-1.2
		l-11.5-0.7c-1.2-0.1-2.3,0.2-3.3,0.8c-0.7,0.4-1.3,1.1-1.4,2L141,221v0.1c-0.3,3.8,0.2,9.7,4.5,16c4.7,6.8,11.6,10.7,15.2,12.5
		c1.9,0.9,3.9,1.7,5.8,2.4C162.9,244.9,160.9,237,161,229z"/>
	
		<linearGradient id="SVGID_9_" gradientUnits="userSpaceOnUse" x1="606.4785" y1="3.4026" x2="713.3277" y2="3.4026" gradientTransform="matrix(-1 0 0 1 852.23 196.2224)">
		<stop  offset="0" style="stop-color:#03769F"/>
		<stop  offset="1" style="stop-color:#04374F"/>
	</linearGradient>
	<path class="st10" d="M141.2,177.8l33.8,12.5l0,0l27.1,10.1c0.1,0,0.2,0.1,0.3,0.1l6.8,2.5l0.3,0.1c1.1,0.4,2.2,0.8,3.3,1.3
		c1,0.5,2,0.9,2.9,1.4c11.9,5.5,20.7,15.8,24.3,28.4c1.2-1.7,2.3-3.5,3.1-5.3c1.1-2.6,4.6-10.5,0.1-19.5
		c-3.4-6.7-9.6-10.8-11.9-12.4c-4-2.6-8.3-4.7-12.8-6.2l-68-25.1c-2.1-0.8-4.8-0.2-5.9,1.2l-5.4,7
		C138.3,175.1,139.1,177,141.2,177.8z"/>
	
		<linearGradient id="SVGID_10_" gradientUnits="userSpaceOnUse" x1="685.2748" y1="55.1784" x2="685.2748" y2="55.1784" gradientTransform="matrix(-1 0 0 1 852.23 196.2224)">
		<stop  offset="0" style="stop-color:#04374F"/>
		<stop  offset="0.11" style="stop-color:#043E58"/>
		<stop  offset="0.3" style="stop-color:#045272"/>
		<stop  offset="0.53" style="stop-color:#03739B"/>
		<stop  offset="0.55" style="stop-color:#03769F"/>
		<stop  offset="0.99" style="stop-color:#04374F"/>
	</linearGradient>
	<path class="st11" d="M167,251.4"/>
</g>
</svg>
