<svg id="Vrstva_1" data-name="Vrstva 1" xmlns="http://www.w3.org/2000/svg" viewBox="0 0 273 273"><defs><style>.cls-1{fill:#f0f0f0;}.cls-2,.cls-3{fill:#fff;stroke-miterlimit:10;}.cls-2{stroke:#000;stroke-width:3px;}.cls-3{stroke:#1878a5;stroke-width:2px;}</style></defs><title>logo-circle</title><circle class="cls-1" cx="136.5" cy="136.5" r="136.5"/><path class="cls-2" d="M115.19,176.32a7.39,7.39,0,0,0-4-6.61q-4.05-2.4-13-4.3Q68.55,159,68.55,139.49q0-11.42,9.16-19t24-7.65q15.84,0,25.34,7.67a24.28,24.28,0,0,1,9.07,15,4.18,4.18,0,0,1-3.24,4.86,5.35,5.35,0,0,1-.7.07H118A4.05,4.05,0,0,1,114,137.3a10.58,10.58,0,0,0-2.73-5q-3.07-3.24-9.61-3.24-5.61,0-8.66,2.6a8.32,8.32,0,0,0-3.08,6.64,7.1,7.1,0,0,0,3.5,6.14q3.51,2.34,11.81,4a94,94,0,0,1,14,3.85q17.61,6.63,17.6,23,0,11.68-9.76,18.93t-25.2,7.24a43.09,43.09,0,0,1-18.59-3.84,31.34,31.34,0,0,1-12.73-10.53,25.68,25.68,0,0,1-4.11-9.39,4.17,4.17,0,0,1,3.15-4.93,3.44,3.44,0,0,1,.78-.08H83.51A4.17,4.17,0,0,1,87.45,176a11.17,11.17,0,0,0,3.93,6.11q4.08,3.24,10.92,3.24,6.39,0,9.65-2.5A7.78,7.78,0,0,0,115.19,176.32Z" transform="translate(-13.5 -13.5)"/><path class="cls-3" d="M149.57,201.74h-9.95a3.38,3.38,0,0,1-3-4.47L175.77,72a3.18,3.18,0,0,1,2.95-2.3h9.95a3.32,3.32,0,0,1,3.13,3.49,3.21,3.21,0,0,1-.18,1L152.53,199.47A3.16,3.16,0,0,1,149.57,201.74Z" transform="translate(-13.5 -13.5)"/><path class="cls-3" d="M197.08,162.76l37.1,13.46a2.08,2.08,0,0,1,1.36,2V195.7a2.06,2.06,0,0,1-2,2.08,1.88,1.88,0,0,1-.78-.16l-62.15-27.1a2.09,2.09,0,0,1-1.24-1.92V152.7a2.09,2.09,0,0,1,1.24-1.92l62.15-27.1a2,2,0,0,1,2.66,1.12h0a2.48,2.48,0,0,1,.16.81v17.52a2.1,2.1,0,0,1-1.34,2l-37.14,13.76a2.12,2.12,0,0,0-1.18,2.69,2.07,2.07,0,0,0,1.18,1.21Z" transform="translate(-13.5 -13.5)"/></svg>